<mxfile host="app.diagrams.net" agent="Mozilla/5.0 (Windows NT 10.0; Win64; x64) AppleWebKit/537.36 (KHTML, like Gecko) Chrome/127.0.0.0 Safari/537.36" version="24.7.6">
  <diagram name="Page-1" id="e7e014a7-5840-1c2e-5031-d8a46d1fe8dd">
    <mxGraphModel dx="955" dy="517" grid="1" gridSize="10" guides="1" tooltips="1" connect="1" arrows="1" fold="1" page="1" pageScale="1" pageWidth="1169" pageHeight="826" background="none" math="0" shadow="0">
      <root>
        <mxCell id="0" />
        <mxCell id="1" parent="0" />
        <mxCell id="vjOpvL-bpPgdEvzL0pEW-42" value="" style="ellipse;fillColor=strokeColor;html=1;" vertex="1" parent="1">
          <mxGeometry x="520" y="40" width="40" height="40" as="geometry" />
        </mxCell>
        <mxCell id="vjOpvL-bpPgdEvzL0pEW-43" value="Open Browser" style="rounded=1;whiteSpace=wrap;html=1;" vertex="1" parent="1">
          <mxGeometry x="480" y="120" width="120" height="60" as="geometry" />
        </mxCell>
        <mxCell id="vjOpvL-bpPgdEvzL0pEW-44" value="" style="endArrow=classic;html=1;rounded=0;exitX=0.5;exitY=1;exitDx=0;exitDy=0;entryX=0.5;entryY=0;entryDx=0;entryDy=0;" edge="1" parent="1" source="vjOpvL-bpPgdEvzL0pEW-42" target="vjOpvL-bpPgdEvzL0pEW-43">
          <mxGeometry width="50" height="50" relative="1" as="geometry">
            <mxPoint x="570" y="220" as="sourcePoint" />
            <mxPoint x="680" y="200" as="targetPoint" />
          </mxGeometry>
        </mxCell>
        <mxCell id="vjOpvL-bpPgdEvzL0pEW-63" value="" style="edgeStyle=orthogonalEdgeStyle;rounded=0;orthogonalLoop=1;jettySize=auto;html=1;" edge="1" parent="1" source="vjOpvL-bpPgdEvzL0pEW-45" target="vjOpvL-bpPgdEvzL0pEW-47">
          <mxGeometry relative="1" as="geometry" />
        </mxCell>
        <mxCell id="vjOpvL-bpPgdEvzL0pEW-45" value="Enter the credentials" style="rounded=1;whiteSpace=wrap;html=1;" vertex="1" parent="1">
          <mxGeometry x="480" y="220" width="120" height="60" as="geometry" />
        </mxCell>
        <mxCell id="vjOpvL-bpPgdEvzL0pEW-46" value="" style="endArrow=classic;html=1;rounded=0;exitX=0.5;exitY=1;exitDx=0;exitDy=0;entryX=0.5;entryY=0;entryDx=0;entryDy=0;" edge="1" parent="1">
          <mxGeometry width="50" height="50" relative="1" as="geometry">
            <mxPoint x="539.52" y="180" as="sourcePoint" />
            <mxPoint x="539.52" y="220" as="targetPoint" />
            <Array as="points">
              <mxPoint x="539.52" y="200" />
            </Array>
          </mxGeometry>
        </mxCell>
        <mxCell id="vjOpvL-bpPgdEvzL0pEW-47" value="Check the credentials" style="rhombus;whiteSpace=wrap;html=1;" vertex="1" parent="1">
          <mxGeometry x="500" y="320" width="80" height="80" as="geometry" />
        </mxCell>
        <mxCell id="vjOpvL-bpPgdEvzL0pEW-48" value="" style="endArrow=classic;html=1;rounded=0;exitX=0.5;exitY=1;exitDx=0;exitDy=0;entryX=0.5;entryY=0;entryDx=0;entryDy=0;" edge="1" parent="1">
          <mxGeometry width="50" height="50" relative="1" as="geometry">
            <mxPoint x="539.52" y="280" as="sourcePoint" />
            <mxPoint x="539.52" y="320" as="targetPoint" />
            <Array as="points">
              <mxPoint x="539.52" y="300" />
            </Array>
          </mxGeometry>
        </mxCell>
        <mxCell id="vjOpvL-bpPgdEvzL0pEW-58" value="" style="shape=partialRectangle;whiteSpace=wrap;html=1;bottom=1;right=1;left=1;top=0;fillColor=none;routingCenterX=-0.5;direction=north;" vertex="1" parent="1">
          <mxGeometry x="580" y="200" width="70" height="160" as="geometry" />
        </mxCell>
        <mxCell id="vjOpvL-bpPgdEvzL0pEW-59" value="" style="endArrow=classic;html=1;rounded=0;exitX=1;exitY=0;exitDx=0;exitDy=0;" edge="1" parent="1" source="vjOpvL-bpPgdEvzL0pEW-58">
          <mxGeometry width="50" height="50" relative="1" as="geometry">
            <mxPoint x="590" y="410" as="sourcePoint" />
            <mxPoint x="540" y="200" as="targetPoint" />
          </mxGeometry>
        </mxCell>
        <mxCell id="vjOpvL-bpPgdEvzL0pEW-60" value="Wrong Credentials" style="text;html=1;align=center;verticalAlign=middle;whiteSpace=wrap;rounded=0;" vertex="1" parent="1">
          <mxGeometry x="585" y="330" width="60" height="30" as="geometry" />
        </mxCell>
        <mxCell id="vjOpvL-bpPgdEvzL0pEW-64" value="" style="endArrow=classic;html=1;rounded=0;exitX=0.5;exitY=1;exitDx=0;exitDy=0;entryX=0.5;entryY=0;entryDx=0;entryDy=0;" edge="1" parent="1">
          <mxGeometry width="50" height="50" relative="1" as="geometry">
            <mxPoint x="539.55" y="400" as="sourcePoint" />
            <mxPoint x="539.55" y="440" as="targetPoint" />
            <Array as="points">
              <mxPoint x="539.55" y="420" />
            </Array>
          </mxGeometry>
        </mxCell>
        <mxCell id="vjOpvL-bpPgdEvzL0pEW-65" value="Access Dashboard" style="rounded=1;whiteSpace=wrap;html=1;" vertex="1" parent="1">
          <mxGeometry x="480" y="440" width="120" height="60" as="geometry" />
        </mxCell>
        <mxCell id="vjOpvL-bpPgdEvzL0pEW-68" value="" style="endArrow=classic;html=1;rounded=0;exitX=0.5;exitY=1;exitDx=0;exitDy=0;entryX=0.5;entryY=0;entryDx=0;entryDy=0;" edge="1" parent="1" target="vjOpvL-bpPgdEvzL0pEW-69">
          <mxGeometry width="50" height="50" relative="1" as="geometry">
            <mxPoint x="539.55" y="500" as="sourcePoint" />
            <mxPoint x="539.55" y="540" as="targetPoint" />
            <Array as="points">
              <mxPoint x="539.55" y="520" />
            </Array>
          </mxGeometry>
        </mxCell>
        <mxCell id="vjOpvL-bpPgdEvzL0pEW-69" value="" style="ellipse;html=1;shape=endState;fillColor=strokeColor;" vertex="1" parent="1">
          <mxGeometry x="525" y="540" width="30" height="30" as="geometry" />
        </mxCell>
      </root>
    </mxGraphModel>
  </diagram>
</mxfile>
